<svg width="20" height="15" viewBox="0 0 20 15" fill="none" xmlns="http://www.w3.org/2000/svg">
<path d="M0.953125 2.67578C0.953125 2.33073 1.00195 2.00846 1.09961 1.70898C1.19727 1.40299 1.33073 1.13932 1.5 0.917969C1.66927 0.690104 1.86458 0.514323 2.08594 0.390625C2.30729 0.260417 2.54492 0.195312 2.79883 0.195312H8.22852C8.48242 0.195312 8.72005 0.260417 8.94141 0.390625C9.16927 0.514323 9.36784 0.690104 9.53711 0.917969C9.70638 1.13932 9.83984 1.40299 9.9375 1.70898C10.0352 2.00846 10.084 2.33073 10.084 2.67578V6.49414H7.75977V1.8457H3.26758V13.3301H10.7871C10.7611 13.5579 10.696 13.776 10.5918 13.9844C10.4941 14.1862 10.3672 14.362 10.2109 14.5117C10.0612 14.6615 9.88867 14.7819 9.69336 14.873C9.49805 14.9577 9.29297 15 9.07812 15H2.79883C2.54492 15 2.30729 14.9349 2.08594 14.8047C1.86458 14.6745 1.66927 14.4987 1.5 14.2773C1.33073 14.056 1.19727 13.7956 1.09961 13.4961C1.00195 13.1966 0.953125 12.8776 0.953125 12.5391V2.67578Z" fill="#5B2333"/>
<path d="M8.65703 15C8.67656 14.7786 8.73516 14.5671 8.83281 14.3652C8.93698 14.1569 9.06393 13.9779 9.21367 13.8281C9.36992 13.6784 9.5457 13.5579 9.74102 13.4668C9.93633 13.3757 10.1447 13.3301 10.366 13.3301H10.7762V2.67578C10.7762 2.33073 10.825 2.00846 10.9227 1.70898C11.0203 1.40299 11.1505 1.13932 11.3133 0.917969C11.4826 0.690104 11.6779 0.514323 11.8992 0.390625C12.1271 0.260417 12.368 0.195312 12.6219 0.195312H15.7469V1.74805H13.1004V10.9375C13.1004 11.276 13.0516 11.5853 12.9539 11.8652C12.8628 12.1452 12.7456 12.3893 12.6023 12.5977C12.4656 12.806 12.3126 12.9753 12.1434 13.1055C11.9741 13.2292 11.8146 13.304 11.6648 13.3301H17.3875V11.1816H19.448V13.3398C19.448 13.5742 19.3992 13.7923 19.3016 13.9941C19.2039 14.196 19.0737 14.3717 18.9109 14.5215C18.7547 14.6712 18.5724 14.7884 18.3641 14.873C18.1622 14.9577 17.9539 15 17.7391 15H8.65703Z" fill="#5B2333"/>
<path d="M8.65703 15C8.67656 14.7786 8.73516 14.5671 8.83281 14.3652C8.93698 14.1569 9.06393 13.9779 9.21367 13.8281C9.36992 13.6784 9.5457 13.5579 9.74102 13.4668C9.93633 13.3757 10.1447 13.3301 10.366 13.3301H10.7762V2.67578C10.7762 2.33073 10.825 2.00846 10.9227 1.70898C11.0203 1.40299 11.1505 1.13932 11.3133 0.917969C11.4826 0.690104 11.6779 0.514323 11.8992 0.390625C12.1271 0.260417 12.368 0.195312 12.6219 0.195312H15.7469V1.74805H13.1004V10.9375C13.1004 11.276 13.0516 11.5853 12.9539 11.8652C12.8628 12.1452 12.7456 12.3893 12.6023 12.5977C12.4656 12.806 12.3126 12.9753 12.1434 13.1055C11.9741 13.2292 11.8146 13.304 11.6648 13.3301H17.3875V11.1816H19.448V13.3398C19.448 13.5742 19.3992 13.7923 19.3016 13.9941C19.2039 14.196 19.0737 14.3717 18.9109 14.5215C18.7547 14.6712 18.5724 14.7884 18.3641 14.873C18.1622 14.9577 17.9539 15 17.7391 15H8.65703Z" fill="#BA1B1D"/>
</svg>
